STARTFONT 2.1
FONT -Monotype-Arial Narrow-Bold-I-Normal--36-360-75-75-P-163-iso8859-9
SIZE 36 75 75
FONTBOUNDINGBOX 41 44 -8 -8

STARTPROPERTIES 24
FOUNDRY "Monotype"
FAMILY_NAME "Arial Narrow"
WEIGHT_NAME "Bold"
SLANT "I"
SETWIDTH_NAME "Normal"
ADD_STYLE_NAME ""
PIXEL_SIZE 36
POINT_SIZE 360
RESOLUTION_X 75
RESOLUTION_Y 75
SPACING "P"
AVERAGE_WIDTH 163
CHARSET_REGISTRY "iso8859"
CHARSET_ENCODING "9"
FACE_NAME "Arial Narrow Bold Italic ISO Latin5"
_DEC_DEVICE_FONTNAMES "PS=arialnarrow-bit-lat5"
COPYRIGHT "Copyright (c) 1993 Monotype Typography Ltd."
CAP_HEIGHT 31
X_HEIGHT 22
WEIGHT 10
QUAD_WIDTH 20
DEFAULT_CHAR 160
FONT_DESCENT 8
FONT_ASCENT 36
ENDPROPERTIES

CHARS 191

STARTCHAR space
ENCODING 32
SWIDTH 228 0
DWIDTH 9 0
BBX 0 0 0 0
BITMAP
ENDCHAR

STARTCHAR exclam
ENCODING 33
SWIDTH 273 0
DWIDTH 10 0
BBX 9 28 2 0
BITMAP
0F80
0F80
0F80
0F00
0F00
1F00
1F00
1F00
1E00
1E00
1E00
1E00
1C00
1C00
1C00
3C00
3800
3800
3800
3800
3000
0000
0000
7800
F800
F800
F800
F000
ENDCHAR

STARTCHAR quotedbl
ENCODING 34
SWIDTH 389 0
DWIDTH 15 0
BBX 12 10 5 18
BITMAP
F9F0
F9F0
F9F0
F1E0
F1E0
F3E0
F3E0
E3C0
E3C0
E3C0
ENDCHAR

STARTCHAR numbersign
ENCODING 35
SWIDTH 456 0
DWIDTH 17 0
BBX 16 28 2 0
BITMAP
070E
070E
071E
0F1E
0F1C
0E1C
0E1C
FFFF
FFFF
FFFF
FFFF
1E38
1C38
1C38
1C78
3C78
3C78
FFFF
FFFF
FFFF
BFFF
78F0
78F0
78E0
70E0
70E0
71E0
F1E0
ENDCHAR

STARTCHAR dollar
ENCODING 36
SWIDTH 456 0
DWIDTH 17 0
BBX 16 33 2 -3
BITMAP
0030
0030
03F8
07FC
0FFE
1FFE
1E6F
3C6F
3CEF
3CC0
3CC0
3EC0
1F40
1FC0
0FE0
0FF0
07F8
01FC
01FC
01BE
039E
231E
F31E
F31E
F33C
FB7C
7FF8
3FF8
1FF0
0780
0600
0E00
0C00
ENDCHAR

STARTCHAR percent
ENCODING 37
SWIDTH 729 0
DWIDTH 28 0
BBX 24 28 3 0
BITMAP
0F001E
3F801C
7FC038
79C078
71C070
F1C0E0
F1C1E0
E1C1C0
E3C380
E38780
E78700
FF0E00
7F1E00
3C1C00
00383C
0078FE
0070FF
00E1E7
01E1C7
01C3C7
03C3C7
078387
07038F
0F038E
1E039E
1C03FC
3C01FC
7800F0
ENDCHAR

STARTCHAR ampersand
ENCODING 38
SWIDTH 592 0
DWIDTH 22 0
BBX 19 28 3 0
BITMAP
00FC00
01FE00
03FE00
07CF00
078F00
078F00
078F00
079E00
07BE00
07FC00
03F800
07F000
0FE000
1FE000
3FF000
7EF000
7CF880
F879C0
F87DE0
F03FC0
F03FC0
F81F80
F81F80
FC7FC0
7FFFE0
3FFFC0
1FFBC0
0FE180
ENDCHAR

STARTCHAR quoteright
ENCODING 39
SWIDTH 228 0
DWIDTH 9 0
BBX 6 11 4 17
BITMAP
3C
7C
7C
78
78
18
38
30
F0
E0
C0
ENDCHAR

STARTCHAR parenleft
ENCODING 40
SWIDTH 273 0
DWIDTH 10 0
BBX 12 36 2 -8
BITMAP
00F0
01E0
01C0
0380
0780
0700
0F00
0E00
1E00
1E00
3C00
3C00
3C00
7800
7800
7800
7800
F000
F000
F000
F000
F000
F000
F000
F000
F000
F000
F000
7000
7000
7000
7800
3800
3800
3800
3800
ENDCHAR

STARTCHAR parenright
ENCODING 41
SWIDTH 273 0
DWIDTH 10 0
BBX 12 36 -3 -8
BITMAP
01C0
01C0
01C0
01E0
01E0
00E0
00E0
00E0
00F0
00F0
00F0
00F0
00F0
00F0
00F0
00F0
00F0
00F0
00F0
01F0
01E0
01E0
01E0
01C0
03C0
03C0
0780
0780
0700
0F00
0E00
1E00
1C00
3800
7800
F000
ENDCHAR

STARTCHAR asterisk
ENCODING 42
SWIDTH 319 0
DWIDTH 12 0
BBX 11 13 3 15
BITMAP
0E00
0E00
0E00
4E40
7DE0
FFE0
7FC0
0E00
1F00
3B80
7BC0
3180
1100
ENDCHAR

STARTCHAR plus
ENCODING 43
SWIDTH 479 0
DWIDTH 18 0
BBX 16 19 2 4
BITMAP
03C0
03C0
03C0
03C0
03C0
03C0
03C0
FFFF
FFFF
FFFF
FFFF
FFFF
03C0
03C0
03C0
03C0
03C0
03C0
03C0
ENDCHAR

STARTCHAR comma
ENCODING 44
SWIDTH 228 0
DWIDTH 9 0
BBX 7 11 0 -6
BITMAP
3E
3C
3C
3C
7C
1C
18
38
70
F0
C0
ENDCHAR

STARTCHAR minus
ENCODING 45
SWIDTH 479 0
DWIDTH 18 0
BBX 15 5 3 11
BITMAP
FFFE
FFFE
FFFE
FFFE
FFFE
ENDCHAR

STARTCHAR period
ENCODING 46
SWIDTH 228 0
DWIDTH 9 0
BBX 6 5 1 0
BITMAP
7C
78
78
78
F8
ENDCHAR

STARTCHAR slash
ENCODING 47
SWIDTH 228 0
DWIDTH 9 0
BBX 14 28 -1 0
BITMAP
001C
0038
0038
0070
0070
0070
00E0
00E0
01C0
01C0
01C0
0380
0380
0700
0700
0700
0E00
0E00
1C00
1C00
1C00
3800
3800
7000
7000
7000
E000
E000
ENDCHAR

STARTCHAR zero
ENCODING 48
SWIDTH 456 0
DWIDTH 17 0
BBX 16 28 2 0
BITMAP
01F0
03FC
07FE
0FFE
1F9F
1F1F
3E0F
3E0F
3C0F
7C0F
7C0F
780F
F81F
F81F
F81F
F81F
F81E
F03E
F03E
F03E
F03C
F07C
F878
79F8
7FF0
3FE0
3FC0
0F80
ENDCHAR

STARTCHAR one
ENCODING 49
SWIDTH 456 0
DWIDTH 17 0
BBX 12 28 4 0
BITMAP
0070
00F0
00F0
03E0
07E0
0FE0
3FE0
7FE0
FFE0
FDC0
F3C0
C3C0
03C0
07C0
07C0
0780
0780
0780
0F80
0F80
0F80
0F00
0F00
0F00
1F00
1F00
1F00
1E00
ENDCHAR

STARTCHAR two
ENCODING 50
SWIDTH 456 0
DWIDTH 17 0
BBX 16 28 2 0
BITMAP
01F0
07FC
0FFE
0FFE
1F1F
1F0F
1E0F
3E0F
020F
001F
001F
003E
007E
007C
00FC
01F8
03F0
07E0
07C0
0F80
1F80
3F00
3E00
7FFE
7FFC
7FFC
FFFC
FFFC
ENDCHAR

STARTCHAR three
ENCODING 51
SWIDTH 456 0
DWIDTH 17 0
BBX 16 28 1 0
BITMAP
01F8
03FC
07FE
0FFF
0F1F
1F0F
1E0F
060F
000F
001F
003E
00FE
00F0
01F8
01FC
007C
003E
001E
001E
001E
F81E
783E
783E
7CFC
3FF8
3FF8
1FF0
0FC0
ENDCHAR

STARTCHAR four
ENCODING 52
SWIDTH 456 0
DWIDTH 17 0
BBX 17 28 1 0
BITMAP
000780
000F00
001F00
003F00
003F00
007F00
00FE00
00FE00
01FE00
03EE00
07DE00
079E00
0F3C00
1F3C00
1E3C00
3C3C00
783C00
7FFF00
FFFF00
FFFF00
FFFF00
FFFF00
007800
00F800
00F000
00F000
00F000
00F000
ENDCHAR

STARTCHAR five
ENCODING 53
SWIDTH 456 0
DWIDTH 17 0
BBX 16 27 2 0
BITMAP
07FF
0FFF
0FFF
0FFE
0FFE
1F00
1E00
1E00
1EE0
3FF8
3FFC
3FFC
3E3E
783E
001E
001E
001E
001E
101E
F03E
F03C
F87C
7CFC
7FF8
3FF0
1FE0
0FC0
ENDCHAR

STARTCHAR six
ENCODING 54
SWIDTH 456 0
DWIDTH 17 0
BBX 15 28 3 0
BITMAP
01F0
07F8
0FFC
1FFE
1F3E
3E1E
3E1E
7C00
7C00
79C0
7FF0
FFF8
FFF8
FC7C
F83C
F83C
F03C
F03C
F03C
F03C
F07C
F07C
F878
7DF8
7FF0
3FE0
1FC0
0F80
ENDCHAR

STARTCHAR seven
ENCODING 55
SWIDTH 456 0
DWIDTH 17 0
BBX 16 27 3 0
BITMAP
7FFF
7FFF
7FFE
7FFE
FFBE
007C
0078
00F0
00F0
01E0
01E0
03C0
03C0
0780
0780
0F00
0F00
1F00
1E00
1E00
3E00
3C00
3C00
3C00
7C00
7800
7800
ENDCHAR

STARTCHAR eight
ENCODING 56
SWIDTH 456 0
DWIDTH 17 0
BBX 15 28 3 0
BITMAP
03F0
07F8
0FFC
1FFC
1E3E
3E1E
3C1E
3C1E
3C1E
3C3E
1E7C
1FF8
0FE0
1FF0
3FF8
7C78
783C
F83C
F03C
F03C
F03C
F07C
F87C
F8F8
7FF8
7FF0
3FE0
0F80
ENDCHAR

STARTCHAR nine
ENCODING 57
SWIDTH 456 0
DWIDTH 17 0
BBX 15 28 2 0
BITMAP
03E0
0FF8
0FF8
1FFC
3F3C
3E3E
7C1E
7C1E
781E
781E
781E
781E
783E
783E
7C7E
3EFE
3FFE
1FFC
0FBC
007C
007C
F078
F0F8
F9F0
FFF0
7FE0
3FC0
1F00
ENDCHAR

STARTCHAR colon
ENCODING 58
SWIDTH 273 0
DWIDTH 10 0
BBX 8 20 2 0
BITMAP
1F
1F
1E
1E
1E
00
00
00
00
00
00
00
00
00
00
78
78
78
F8
F8
ENDCHAR

STARTCHAR semicolon
ENCODING 59
SWIDTH 273 0
DWIDTH 10 0
BBX 9 26 1 -6
BITMAP
0780
0F80
0F80
0F00
0F00
0000
0000
0000
0000
0000
0000
0000
0000
0000
0000
3E00
3C00
3C00
3C00
7C00
1C00
1800
3800
7000
F000
C000
ENDCHAR

STARTCHAR less
ENCODING 60
SWIDTH 479 0
DWIDTH 18 0
BBX 15 21 3 3
BITMAP
0002
000E
003E
007E
01FE
07FE
1FF8
7FE0
FF80
FC00
F000
FC00
FF00
7FE0
1FF8
07FE
01FE
007E
003E
000E
0002
ENDCHAR

STARTCHAR equal
ENCODING 61
SWIDTH 479 0
DWIDTH 18 0
BBX 15 13 3 7
BITMAP
FFFE
FFFE
FFFE
FFFE
FFFE
0000
0000
0000
FFFE
FFFE
FFFE
FFFE
FFFE
ENDCHAR

STARTCHAR greater
ENCODING 62
SWIDTH 479 0
DWIDTH 18 0
BBX 15 21 3 3
BITMAP
8000
C000
F000
FC00
FF00
FFC0
3FE0
0FF8
03FE
00FE
003E
00FE
03FE
0FFC
3FF0
FFC0
FF00
FC00
F000
C000
8000
ENDCHAR

STARTCHAR question
ENCODING 63
SWIDTH 501 0
DWIDTH 19 0
BBX 15 28 4 0
BITMAP
07E0
1FF8
3FFC
7FFC
7C3E
F81E
F01E
F01E
103E
003C
007C
00F8
01F8
03F0
07E0
0FC0
0F80
1F00
1E00
1E00
1E00
0000
0000
3C00
3C00
3C00
7C00
7C00
ENDCHAR

STARTCHAR at
ENCODING 64
SWIDTH 800 0
DWIDTH 30 0
BBX 30 36 1 -8
BITMAP
001FF000
007FFE00
01FFFF00
03F83F80
07C007C0
0F8003E0
0F0001E0
1E0000F0
3C1F9E70
383FFC70
387FFC38
70F8FC38
70F07C38
71F07C38
E1E07C38
E1E07838
E3C07838
E3C07838
E3C07870
E3C07870
E3C07870
E3C0F0E0
E3C0F1E0
73E1F3C0
71F3FF80
71FFFF80
78FEFE00
387C7800
3C00003C
1E000078
0F0000F0
0FC003E0
07F81FC0
01FFFF80
00FFFF00
001FF800
ENDCHAR

STARTCHAR A
ENCODING 65
SWIDTH 592 0
DWIDTH 22 0
BBX 21 28 0 0
BITMAP
000FC0
000FC0
001FC0
001FC0
003FC0
003FC0
007DC0
007BC0
007BE0
00F9E0
00F1E0
01F1E0
01E1E0
03E1E0
03C1E0
07C1E0
07C1F0
0FFFF0
0FFFF0
0FFFF0
1FFFF0
1FFFF0
3E00F0
3C00F8
7C00F8
7C00F8
F80078
F80078
ENDCHAR

STARTCHAR B
ENCODING 66
SWIDTH 592 0
DWIDTH 22 0
BBX 21 28 2 0
BITMAP
07FF00
0FFFC0
0FFFE0
0FFFF0
0FFFF0
0F00F8
0F00F8
1F00F8
1F00F8
1F00F0
1E01F0
1FFFE0
3FFFC0
3FFF80
3FFFE0
3FFFE0
3C03F0
3C01F0
7C01F0
7C01F0
7801F0
7801F0
7803E0
780FE0
FFFFC0
FFFFC0
FFFF80
FFFE00
ENDCHAR

STARTCHAR C
ENCODING 67
SWIDTH 592 0
DWIDTH 22 0
BBX 21 28 3 0
BITMAP
007E00
01FF80
07FFC0
0FFFE0
0FFFE0
1FC3F0
3F01F0
3E00F0
3E00F8
7C0000
7C0000
780000
780000
F80000
F80000
F80000
F80000
F80000
F803E0
7803E0
7C07E0
7C07C0
7E1FC0
3FFF80
3FFF00
1FFE00
0FFC00
01E000
ENDCHAR

STARTCHAR D
ENCODING 68
SWIDTH 592 0
DWIDTH 22 0
BBX 21 28 2 0
BITMAP
0FFE00
0FFF80
0FFFC0
0FFFE0
0FFFE0
1F03F0
1F01F0
1F00F0
1E00F8
1E00F8
1E00F8
3E00F8
3E00F8
3E00F8
3C00F8
3C00F8
3C00F0
7C01F0
7C01F0
7C03F0
7803E0
7807E0
780FC0
F83FC0
FFFF80
FFFF00
FFFE00
FFF800
ENDCHAR

STARTCHAR E
ENCODING 69
SWIDTH 547 0
DWIDTH 21 0
BBX 22 28 1 0
BITMAP
07FFFC
07FFF8
07FFF8
0FFFF8
0FFFF8
0F8000
0F0000
0F0000
0F0000
1F0000
1F0000
1FFFE0
1FFFE0
1FFFE0
1FFFE0
3FFFE0
3E0000
3E0000
3C0000
3C0000
3C0000
7C0000
7C0000
7FFFE0
7FFFC0
7FFFC0
7FFFC0
FFFFC0
ENDCHAR

STARTCHAR F
ENCODING 70
SWIDTH 501 0
DWIDTH 19 0
BBX 20 28 1 0
BITMAP
07FFF0
07FFF0
0FFFF0
0FFFF0
0FFFF0
0F8000
0F0000
0F0000
1F0000
1F0000
1F0000
1FFFC0
1FFFC0
1FFFC0
3FFFC0
3FFFC0
3E0000
3C0000
3C0000
3C0000
7C0000
7C0000
7C0000
780000
780000
780000
F80000
F80000
ENDCHAR

STARTCHAR G
ENCODING 71
SWIDTH 638 0
DWIDTH 24 0
BBX 22 28 3 0
BITMAP
003E00
01FF80
03FFC0
07FFE0
0FFFF0
1F81F8
3F00F8
3E0078
7C007C
7C0000
780000
F80000
F80000
F01FF8
F03FF0
F03FF0
F03FF0
F03EF0
F001F0
F801F0
F801E0
F801E0
7C07E0
7FFFE0
3FFFE0
1FFF80
0FFE00
03F000
ENDCHAR

STARTCHAR H
ENCODING 72
SWIDTH 592 0
DWIDTH 22 0
BBX 23 28 1 0
BITMAP
07C03E
07803E
07803C
0F803C
0F803C
0F807C
0F807C
0F007C
0F0078
1F0078
1F0078
1FFFF8
1FFFF8
1FFFF8
1FFFF0
3FFFF0
3E00F0
3E01F0
3E01F0
3C01F0
3C01E0
7C01E0
7C01E0
7C03E0
7C03E0
7803E0
7803C0
F803C0
ENDCHAR

STARTCHAR I
ENCODING 73
SWIDTH 228 0
DWIDTH 9 0
BBX 9 28 1 0
BITMAP
0780
0F80
0F80
0F80
0F80
0F00
0F00
1F00
1F00
1F00
1F00
1E00
1E00
3E00
3E00
3E00
3E00
3C00
3C00
7C00
7C00
7C00
7C00
7800
7800
F800
F800
F800
ENDCHAR

STARTCHAR J
ENCODING 74
SWIDTH 456 0
DWIDTH 17 0
BBX 18 28 1 0
BITMAP
0007C0
000780
000780
000780
000F80
000F80
000F80
000F00
000F00
000F00
001F00
001F00
001F00
001E00
001E00
001E00
003E00
003E00
003E00
703C00
F03C00
F07C00
F87C00
FFF800
7FF800
7FF000
3FE000
0F8000
ENDCHAR

STARTCHAR K
ENCODING 75
SWIDTH 592 0
DWIDTH 22 0
BBX 24 28 1 0
BITMAP
07C03F
07807E
0780FC
0F81F8
0F83F0
0F87E0
0F0FC0
0F1F80
0F3F00
1F3E00
1F7C00
1F7C00
1FFE00
1FFE00
1FFF00
3FDF00
3F9F00
3F0F80
3E0F80
3C07C0
3C07C0
7C03E0
7C03E0
7C03F0
7801F0
7801F0
7800F8
F800F8
ENDCHAR

STARTCHAR L
ENCODING 76
SWIDTH 501 0
DWIDTH 19 0
BBX 17 28 1 0
BITMAP
07C000
078000
078000
0F8000
0F8000
0F8000
0F8000
0F0000
0F0000
1F0000
1F0000
1F0000
1F0000
1E0000
1E0000
3E0000
3E0000
3E0000
3E0000
3C0000
3C0000
7C0000
7C0000
7FFF80
7FFF80
7FFF80
7FFF80
FFFF00
ENDCHAR

STARTCHAR M
ENCODING 77
SWIDTH 683 0
DWIDTH 26 0
BBX 26 28 1 0
BITMAP
07E00FC0
07F01FC0
07F01FC0
0FF03FC0
0FF03FC0
0F703D80
0F707B80
0F707B80
0EF0FB80
1EF0F780
1EF0F780
1EF1E700
1EF1EF00
1EF3EF00
1CF3CF00
3CF3CF00
3CF78F00
3CF79E00
3CF79E00
3CF71E00
7CFF1E00
787F1E00
787E1E00
787E3C00
787C3C00
787C3C00
F87C3C00
F0783C00
ENDCHAR

STARTCHAR N
ENCODING 78
SWIDTH 592 0
DWIDTH 22 0
BBX 22 28 2 0
BITMAP
0F807C
0F807C
0F8078
0FC078
1FC078
1FC078
1FE0F8
1FE0F8
1FE0F0
1EF0F0
3EF0F0
3EF0F0
3CF1F0
3CF9F0
3C79E0
3C79E0
7C7DE0
7C3DE0
783FE0
783FE0
781FC0
781FC0
F81FC0
F00FC0
F00FC0
F00FC0
F00780
F00780
ENDCHAR

STARTCHAR O
ENCODING 79
SWIDTH 638 0
DWIDTH 24 0
BBX 22 28 3 0
BITMAP
003E00
01FF80
03FFE0
07FFE0
0FFFF0
1FC1F8
1F00F8
3F00F8
3E007C
7C007C
7C007C
7C007C
78007C
78007C
F8007C
F80078
F800F8
F800F8
F800F8
7801F0
7C03F0
7C07E0
7F0FE0
3FFFC0
1FFF80
0FFF00
07FC00
01F000
ENDCHAR

STARTCHAR P
ENCODING 80
SWIDTH 547 0
DWIDTH 21 0
BBX 21 28 1 0
BITMAP
07FF80
07FFE0
0FFFF0
0FFFF0
0FFFF0
0F81F8
0F00F8
0F00F8
1F00F8
1F00F8
1F00F0
1F01F0
1E07F0
1FFFE0
3FFFE0
3FFFC0
3FFF80
3FFC00
3C0000
3C0000
7C0000
7C0000
7C0000
7C0000
780000
780000
F80000
F80000
ENDCHAR

STARTCHAR Q
ENCODING 81
SWIDTH 638 0
DWIDTH 24 0
BBX 22 31 3 -3
BITMAP
003E00
01FF80
03FFE0
07FFE0
0FFFF0
1FC1F8
1F00F8
3F00F8
3E007C
7C007C
7C007C
7C007C
78007C
78007C
F8007C
F80078
F800F8
F800F8
F830F8
7839F0
7C7FF0
7C3FE0
7F1FE0
3FFFC0
1FFF80
0FFFC0
07FFE0
01F3F0
0001E0
0000E0
000040
ENDCHAR

STARTCHAR R
ENCODING 82
SWIDTH 592 0
DWIDTH 22 0
BBX 22 28 1 0
BITMAP
07FFC0
0FFFF0
0FFFF8
0FFFF8
0FFFF8
0F007C
0F007C
1F007C
1F007C
1F007C
1F00F8
1E03F8
1FFFF0
3FFFF0
3FFFC0
3FFF00
3E3E00
3C1F00
3C0F80
7C0F80
7C07C0
7C07C0
7C07C0
7803E0
7803E0
F803E0
F801F0
F801F0
ENDCHAR

STARTCHAR S
ENCODING 83
SWIDTH 547 0
DWIDTH 21 0
BBX 19 28 2 0
BITMAP
01FE00
03FF00
07FF80
0FFFC0
1FFFC0
1F03E0
1E03E0
1E01E0
1E01E0
1F0000
1F8000
0FE000
0FF800
07FE00
01FF00
007F80
001F80
000FC0
F807C0
F807C0
F807C0
F80780
7C0F80
7FFF80
3FFF00
3FFE00
0FFC00
03E000
ENDCHAR

STARTCHAR T
ENCODING 84
SWIDTH 501 0
DWIDTH 19 0
BBX 18 28 4 0
BITMAP
FFFFC0
FFFFC0
FFFFC0
FFFF80
FFFF80
03E000
03E000
03C000
03C000
07C000
07C000
07C000
07C000
078000
078000
0F8000
0F8000
0F8000
0F8000
0F0000
0F0000
1F0000
1F0000
1F0000
1F0000
1E0000
1E0000
3E0000
ENDCHAR

STARTCHAR U
ENCODING 85
SWIDTH 592 0
DWIDTH 22 0
BBX 21 28 3 0
BITMAP
1E00F8
1E00F8
3E00F0
3E00F0
3E01F0
3E01F0
3C01F0
3C01F0
7C01E0
7C01E0
7C03E0
7C03E0
7803E0
7803E0
F803C0
F803C0
F807C0
F007C0
F007C0
F00780
F00F80
F80F80
FC1F00
7FFF00
7FFE00
3FFC00
1FF800
07C000
ENDCHAR

STARTCHAR V
ENCODING 86
SWIDTH 547 0
DWIDTH 21 0
BBX 21 28 4 0
BITMAP
F000F8
F000F0
F001F0
F801E0
F803E0
F803C0
F807C0
780780
780F80
780F80
7C0F00
7C1F00
7C1E00
7C3E00
3C3C00
3C7C00
3C7C00
3C7800
3EF800
3EF000
3EF000
1FE000
1FE000
1FC000
1FC000
1FC000
1F8000
1F8000
ENDCHAR

STARTCHAR W
ENCODING 87
SWIDTH 774 0
DWIDTH 29 0
BBX 29 28 4 0
BITMAP
F00F8078
F01F80F8
F01F80F0
F01F81F0
F03F81F0
F03F81E0
F07F83E0
F07F83C0
F07B83C0
F0FB87C0
F0F78780
F1F78F80
F1E78F00
F1E78F00
F3E79F00
F3C79E00
F7C7BE00
F783BC00
F783BC00
F783FC00
FF03F800
FF03F800
FE03F800
FE03F000
FE03F000
FC03E000
FC03E000
F803E000
ENDCHAR

STARTCHAR X
ENCODING 88
SWIDTH 547 0
DWIDTH 21 0
BBX 25 28 -1 0
BITMAP
0F801F80
07C01F00
07C03F00
03E07E00
03E0FC00
01E0FC00
01F1F800
01F3F000
00FBF000
00FBE000
007FC000
007F8000
007F8000
003F0000
007E0000
007F0000
00FF0000
01FF0000
01FF8000
03F78000
07E7C000
0FE7C000
0FC7C000
1F83E000
3F03E000
3F01F000
7E01F000
FC01F800
ENDCHAR

STARTCHAR Y
ENCODING 89
SWIDTH 547 0
DWIDTH 21 0
BBX 20 28 4 0
BITMAP
F801F0
F803F0
F803E0
7C07C0
7C07C0
3C0F80
3E1F80
3E1F00
1E3F00
1F3E00
1F7C00
0F7C00
0FF800
0FF800
07F000
07E000
03E000
03C000
07C000
07C000
07C000
07C000
078000
078000
0F8000
0F8000
0F8000
0F8000
ENDCHAR

STARTCHAR Z
ENCODING 90
SWIDTH 501 0
DWIDTH 19 0
BBX 20 28 1 0
BITMAP
0FFFF0
1FFFF0
1FFFE0
1FFFE0
1FFFE0
0007C0
000FC0
001F80
001F00
003F00
007E00
007C00
00FC00
01F800
01F000
03E000
07E000
0FC000
0F8000
1F8000
3F0000
3E0000
7C0000
FFFFC0
FFFFC0
FFFF80
FFFF80
FFFF80
ENDCHAR

STARTCHAR bracketleft
ENCODING 91
SWIDTH 273 0
DWIDTH 10 0
BBX 14 35 0 -7
BITMAP
03FC
03F8
03F8
03F8
07C0
07C0
0780
0780
0780
0780
0F80
0F00
0F00
0F00
0F00
0F00
1F00
1E00
1E00
1E00
1E00
1E00
3E00
3C00
3C00
3C00
3C00
3C00
7C00
7800
7800
7F80
7F00
7F00
FF00
ENDCHAR

STARTCHAR backslash
ENCODING 92
SWIDTH 228 0
DWIDTH 9 0
BBX 7 28 2 0
BITMAP
F0
70
70
70
70
70
70
70
78
38
38
38
38
38
38
38
3C
1C
1C
1C
1C
1C
1C
1C
1E
0E
0E
0E
ENDCHAR

STARTCHAR bracketright
ENCODING 93
SWIDTH 273 0
DWIDTH 10 0
BBX 14 35 -2 -7
BITMAP
03FC
03F8
03F8
03F8
0078
0078
00F8
00F0
00F0
00F0
00F0
00F0
01F0
01E0
01E0
01E0
01E0
01E0
03E0
03C0
03C0
03C0
03C0
03C0
07C0
0780
0780
0780
0780
0F80
0F80
7F00
7F00
FF00
FF00
ENDCHAR

STARTCHAR asciicircum
ENCODING 94
SWIDTH 479 0
DWIDTH 18 0
BBX 14 15 2 13
BITMAP
0780
0780
07C0
0FC0
0FE0
1FE0
1EE0
1EF0
3CF0
3CF0
7C78
7878
787C
F83C
F03C
ENDCHAR

STARTCHAR underscore
ENCODING 95
SWIDTH 456 0
DWIDTH 17 0
BBX 19 2 -1 -5
BITMAP
FFFFE0
FFFFE0
ENDCHAR

STARTCHAR quoteleft
ENCODING 96
SWIDTH 228 0
DWIDTH 9 0
BBX 7 11 3 17
BITMAP
0E
1C
3C
38
30
70
7C
78
78
78
F8
ENDCHAR

STARTCHAR a
ENCODING 97
SWIDTH 456 0
DWIDTH 17 0
BBX 15 20 2 0
BITMAP
03F0
0FFC
1FFC
1FFE
3E3E
3C1E
001E
001E
0FFE
3FFE
7FFC
FC3C
F83C
F07C
F07C
F8F8
FFF8
7FF8
7F7C
1E3C
ENDCHAR

STARTCHAR b
ENCODING 98
SWIDTH 501 0
DWIDTH 19 0
BBX 17 28 2 0
BITMAP
0F8000
0F0000
0F0000
0F0000
1F0000
1F0000
1F0000
1E0000
1E7C00
1EFE00
3FFF00
3FFF00
3F0F80
3E0F80
3E0780
3C0780
7C0780
7C0780
780780
780F80
780F80
7C0F00
FC1F00
FE3F00
FFFE00
F7FC00
F7F800
F1F000
ENDCHAR

STARTCHAR c
ENCODING 99
SWIDTH 456 0
DWIDTH 17 0
BBX 16 20 2 0
BITMAP
03F0
0FF8
1FFC
3FFE
3E3E
7C1F
781E
F800
F800
F800
F000
F000
F020
F03C
F87C
F8F8
7FF8
7FF0
3FE0
0F80
ENDCHAR

STARTCHAR d
ENCODING 100
SWIDTH 501 0
DWIDTH 19 0
BBX 19 28 2 0
BITMAP
0003E0
0003E0
0003C0
0003C0
0003C0
0003C0
0007C0
0007C0
07C780
0FF780
1FF780
3FFF80
3E3F80
7C1F80
781F00
F80F00
F80F00
F00F00
F01F00
F01F00
F01E00
F03E00
F83E00
FC7E00
7FFE00
7FDE00
3FBC00
1F3C00
ENDCHAR

STARTCHAR e
ENCODING 101
SWIDTH 456 0
DWIDTH 17 0
BBX 15 20 2 0
BITMAP
03E0
0FF8
1FF8
3FFC
3E3C
7C1E
781E
F81E
F81E
FFFE
FFFE
FFFE
F000
F000
F83C
787C
7FF8
3FF0
1FE0
0780
ENDCHAR

STARTCHAR f
ENCODING 102
SWIDTH 273 0
DWIDTH 10 0
BBX 13 28 2 0
BITMAP
03F0
07F8
0FF0
0FF0
0F10
1F00
1F00
1E00
7FE0
FFC0
FFC0
FFC0
3E00
3E00
3C00
3C00
3C00
7C00
7C00
7800
7800
7800
7800
F800
F800
F000
F000
F000
ENDCHAR

STARTCHAR g
ENCODING 103
SWIDTH 501 0
DWIDTH 19 0
BBX 18 28 1 -8
BITMAP
03E3C0
07F3C0
0FFBC0
1FFBC0
1F1FC0
3E0F80
3C0F80
7C0F80
7C0F80
780F80
780F80
780F00
780F00
781F00
7C1F00
7E3F00
3FFF00
3FFE00
1FDE00
0F1E00
003E00
E03E00
F83C00
F87C00
FFFC00
7FF800
3FF000
0FC000
ENDCHAR

STARTCHAR h
ENCODING 104
SWIDTH 501 0
DWIDTH 19 0
BBX 17 28 1 0
BITMAP
078000
078000
0F8000
0F8000
0F8000
0F0000
0F0000
0F0000
1F3E00
1F7F00
1F7F80
1FFF80
1F8F80
1F0780
3E0780
3E0780
3E0F80
3C0F80
3C0F80
3C0F00
7C0F00
7C0F00
781F00
781F00
781E00
781E00
F81E00
F83E00
ENDCHAR

STARTCHAR i
ENCODING 105
SWIDTH 228 0
DWIDTH 9 0
BBX 9 28 1 0
BITMAP
0780
0780
0F80
0F80
0F80
0000
0000
0000
1F00
1F00
1F00
1E00
1E00
1E00
3E00
3E00
3E00
3C00
3C00
3C00
7C00
7C00
7800
7800
7800
7800
F800
F800
ENDCHAR

STARTCHAR j
ENCODING 106
SWIDTH 228 0
DWIDTH 9 0
BBX 13 36 -3 -8
BITMAP
0078
0078
00F8
00F8
00F8
0000
0000
0000
00F0
01F0
01F0
01E0
01E0
01E0
01E0
03E0
03E0
03C0
03C0
03C0
07C0
07C0
07C0
0780
0780
0780
0F80
0F80
0F80
0F00
1F00
FF00
FE00
FE00
FC00
F800
ENDCHAR

STARTCHAR k
ENCODING 107
SWIDTH 456 0
DWIDTH 17 0
BBX 18 28 1 0
BITMAP
078000
078000
078000
0F8000
0F8000
0F0000
0F0000
0F0000
0F0FC0
1F1F80
1F1F00
1E3E00
1E7C00
1EF800
1EF800
3FF000
3FF000
3FF000
3FF800
3F7800
7E7800
7C7800
7C7C00
783C00
783C00
783E00
F83E00
F81E00
ENDCHAR

STARTCHAR l
ENCODING 108
SWIDTH 228 0
DWIDTH 9 0
BBX 9 28 1 0
BITMAP
0780
0780
0F80
0F80
0F00
0F00
0F00
0F00
1F00
1F00
1E00
1E00
1E00
1E00
3E00
3E00
3C00
3C00
3C00
3C00
7C00
7C00
7800
7800
7800
7800
F800
F800
ENDCHAR

STARTCHAR m
ENCODING 109
SWIDTH 729 0
DWIDTH 28 0
BBX 26 20 1 0
BITMAP
0F3C0F00
1F7F3F80
1EFF7FC0
1FDFFFC0
1F0FC7C0
1F0FC3C0
1E0F83C0
3E0F83C0
3E0F07C0
3C0F07C0
3C1F0780
3C1F0780
3C1E0780
7C1E0F80
7C1E0F80
781E0F80
783E0F00
783E0F00
F83C0F00
F83C1F00
ENDCHAR

STARTCHAR n
ENCODING 110
SWIDTH 501 0
DWIDTH 19 0
BBX 17 20 1 0
BITMAP
1F1E00
1E7F00
1EFF80
1FFF80
1F8F80
1F0780
3E0780
3E0780
3E0F80
3C0F80
3C0F00
3C0F00
7C0F00
7C0F00
781F00
781F00
781E00
781E00
F81E00
F83E00
ENDCHAR

STARTCHAR o
ENCODING 111
SWIDTH 501 0
DWIDTH 19 0
BBX 16 20 2 0
BITMAP
03F0
0FF8
1FFC
3FFE
7E1F
7C1F
780F
F80F
F80F
F00F
F00F
F01F
F01F
F01E
F83E
7C7C
7FFC
3FF8
1FF0
0FC0
ENDCHAR

STARTCHAR p
ENCODING 112
SWIDTH 501 0
DWIDTH 19 0
BBX 19 28 0 -8
BITMAP
079F00
07BF80
0FBFC0
0FFFC0
0FC3E0
0F83E0
0F01E0
1F01E0
1F01E0
1F01E0
1E01E0
1E03E0
1E03E0
3F03C0
3F07C0
3F8F80
3FFF80
3DFF00
3DFE00
7C7C00
7C0000
780000
780000
780000
780000
F80000
F80000
F80000
ENDCHAR

STARTCHAR q
ENCODING 113
SWIDTH 501 0
DWIDTH 19 0
BBX 18 28 2 -8
BITMAP
07C7C0
0FF780
1FF780
3FFF80
7E3F80
7C1F80
781F00
F80F00
F80F00
F00F00
F01F00
F01F00
F01E00
F03E00
F83E00
FC7E00
7FFE00
7FFE00
3FBC00
1F3C00
003C00
007C00
007C00
007C00
007800
007800
007800
007800
ENDCHAR

STARTCHAR r
ENCODING 114
SWIDTH 319 0
DWIDTH 12 0
BBX 14 20 1 0
BITMAP
1F38
1E7C
1EF8
1EF8
1FF0
1F80
3F00
3E00
3E00
3C00
3C00
7C00
7C00
7C00
7800
7800
7800
F800
F800
F800
ENDCHAR

STARTCHAR s
ENCODING 115
SWIDTH 456 0
DWIDTH 17 0
BBX 16 20 1 0
BITMAP
01F0
0FFC
1FFE
1FFF
3E1F
3C0C
3E00
3F80
3FF0
1FF8
0FFC
03FE
007E
101E
F01E
F83E
FFFC
7FFC
3FF8
07C0
ENDCHAR

STARTCHAR t
ENCODING 116
SWIDTH 273 0
DWIDTH 10 0
BBX 10 27 2 0
BITMAP
0100
0300
0700
0F00
1F00
1F00
1E00
7FC0
FFC0
FF80
FF80
3C00
3C00
3C00
3C00
7C00
7C00
7800
7800
7800
7800
F800
F800
FF00
7E00
7E00
3E00
ENDCHAR

STARTCHAR u
ENCODING 117
SWIDTH 501 0
DWIDTH 19 0
BBX 17 20 2 0
BITMAP
3E0F80
3C0F80
3C0F00
3C0F00
7C0F00
7C0F00
781F00
781F00
781E00
781E00
F81E00
F83E00
F03E00
F03E00
F07C00
F8FC00
FFFC00
FFBC00
7F3C00
3C7C00
ENDCHAR

STARTCHAR v
ENCODING 118
SWIDTH 456 0
DWIDTH 17 0
BBX 17 20 2 0
BITMAP
F80F80
780F80
781F00
781F00
783E00
783E00
7C3C00
3C7C00
3C7800
3CF800
3CF000
3DF000
3DE000
1FE000
1FC000
1FC000
1F8000
1F8000
1F0000
0F0000
ENDCHAR

STARTCHAR w
ENCODING 119
SWIDTH 638 0
DWIDTH 24 0
BBX 24 20 2 0
BITMAP
F03C0F
F03C1F
F07C1E
707C3E
707C3C
78FC3C
78FE7C
79EE78
79EE78
79DEF0
7BDEF0
7BDFE0
7B8EE0
3F8FE0
3F0FC0
3F0FC0
3F0F80
3E0F80
3E0F80
3C0F00
ENDCHAR

STARTCHAR x
ENCODING 120
SWIDTH 456 0
DWIDTH 17 0
BBX 20 20 -1 0
BITMAP
0F81F0
0F83E0
0787C0
07CFC0
03CF80
03EF00
03FE00
01FE00
01FC00
00F800
01F800
01F800
03FC00
07FC00
0FDE00
0FBE00
1F1E00
3E1F00
7E0F00
FC0F80
ENDCHAR

STARTCHAR y
ENCODING 121
SWIDTH 456 0
DWIDTH 17 0
BBX 19 28 0 -8
BITMAP
1E01E0
1E03E0
1E03C0
1E07C0
1F0780
1F0F80
0F0F80
0F1F00
0F1F00
0F1E00
0F3E00
0F3C00
0F7C00
077800
07B800
07F000
07F000
07F000
07E000
03E000
07C000
07C000
0F8000
1F8000
7F0000
FF0000
FE0000
FC0000
ENDCHAR

STARTCHAR z
ENCODING 122
SWIDTH 410 0
DWIDTH 16 0
BBX 15 20 1 0
BITMAP
3FFE
3FFE
3FFE
3FFC
007C
00F8
01F0
01F0
03E0
07C0
0F80
0F80
1F00
3E00
3E00
7C00
FFFC
FFF8
FFF8
FFF8
ENDCHAR

STARTCHAR braceleft
ENCODING 123
SWIDTH 319 0
DWIDTH 12 0
BBX 14 36 1 -8
BITMAP
003C
00FC
01FC
01FC
01E0
03C0
03C0
03C0
03C0
0380
0780
0780
0780
0F80
0F00
3F00
7E00
7800
7C00
FC00
3E00
1E00
1E00
1E00
1E00
1E00
1E00
1C00
3C00
3C00
3C00
3E00
3F80
3F80
1F00
0F00
ENDCHAR

STARTCHAR bar
ENCODING 124
SWIDTH 230 0
DWIDTH 9 0
BBX 3 36 4 -8
BITMAP
E0
E0
E0
E0
E0
E0
E0
E0
E0
E0
E0
E0
E0
E0
E0
E0
E0
E0
E0
E0
E0
E0
E0
E0
E0
E0
E0
E0
E0
E0
E0
E0
E0
E0
E0
E0
ENDCHAR

STARTCHAR braceright
ENCODING 125
SWIDTH 319 0
DWIDTH 12 0
BBX 14 36 -2 -8
BITMAP
03C0
03F0
07F0
07F0
01F0
00F0
00F0
00F0
00F0
01E0
01E0
01E0
01E0
01E0
01E0
01FC
00F8
0078
00F8
01F8
03F0
03C0
07C0
0780
0780
0780
0780
0F00
0F00
0F00
0F00
1E00
FE00
FE00
FC00
F000
ENDCHAR

STARTCHAR asciitilde
ENCODING 126
SWIDTH 479 0
DWIDTH 18 0
BBX 16 8 2 9
BITMAP
1E01
7F81
FFE3
FFFF
FFFF
C3FF
80FE
003C
ENDCHAR

STARTCHAR space
ENCODING 160
SWIDTH 228 0
DWIDTH 10 0
BBX 0 0 0 0
BITMAP
ENDCHAR

STARTCHAR exclamdown
ENCODING 161
SWIDTH 273 0
DWIDTH 10 0
BBX 10 27 0 -7
BITMAP
07C0
0780
0780
0780
0F80
0000
0000
0700
0600
0E00
0E00
0E00
0E00
1E00
1E00
1E00
1E00
3C00
3C00
3C00
7C00
7C00
7C00
7C00
7800
7800
F800
ENDCHAR

STARTCHAR cent
ENCODING 162
SWIDTH 456 0
DWIDTH 17 0
BBX 16 34 2 -7
BITMAP
0008
000C
000C
0018
0018
0018
0038
01F0
07F8
1FFC
1FFE
3E6E
7CDF
78CF
78C0
F980
F180
F380
F300
F320
F73E
FA3C
7E7C
7FF8
3FF0
3FE0
1FC0
1800
1800
3800
3000
3000
6000
2000
ENDCHAR

STARTCHAR sterling
ENCODING 163
SWIDTH 456 0
DWIDTH 17 0
BBX 18 28 1 0
BITMAP
007C00
01FF00
03FF80
07FF80
07C7C0
0F83C0
0F03C0
0F0300
0F0000
0F0000
0F0000
0F0000
3FF000
3FF000
7FF000
7FE000
070000
0F0000
0F0000
0F0000
1E0000
3E0000
780200
FBFE00
FFFE00
FFFE00
FFFF00
C03C00
ENDCHAR

STARTCHAR currency
ENCODING 164
SWIDTH 456 0
DWIDTH 17 0
BBX 16 20 2 4
BITMAP
2004
300C
77EE
FFFF
7FFE
3FFC
3E7C
7C3E
781E
781E
781E
781E
7C3E
3E7C
3FFC
7FFE
FFFF
77EE
300C
1004
ENDCHAR

STARTCHAR yen
ENCODING 165
SWIDTH 456 0
DWIDTH 17 0
BBX 20 28 1 0
BITMAP
1E01F0
1E03E0
1F03C0
1F07C0
0F0780
0F0F80
0F0F00
0F9F00
079E00
07BE00
07BC00
07B800
03F800
7FFF80
7FFF80
7FFF80
01E000
03E000
03E000
FFFF00
FFFF00
FFFF00
03C000
07C000
07C000
078000
078000
078000
ENDCHAR

STARTCHAR brokenbar
ENCODING 166
SWIDTH 230 0
DWIDTH 9 0
BBX 3 36 4 -8
BITMAP
E0
E0
E0
E0
E0
E0
E0
E0
E0
E0
E0
E0
E0
E0
E0
00
00
00
00
00
00
E0
E0
E0
E0
E0
E0
E0
E0
E0
E0
E0
E0
E0
E0
E0
ENDCHAR

STARTCHAR section
ENCODING 167
SWIDTH 456 0
DWIDTH 17 0
BBX 17 36 1 -8
BITMAP
00F800
03FE00
07FF00
07FF00
0F8F00
0F0F80
0F0780
0F0000
078000
07C000
07E000
1FF000
3FF800
3CFC00
787C00
783E00
783E00
781F00
7C0F00
3E0F00
3F0F00
1F8E00
0FDE00
0FFC00
07F800
03F000
01F000
00F800
107800
F07800
F07800
F8F800
7FF000
7FF000
3FE000
0F8000
ENDCHAR

STARTCHAR dieresis
ENCODING 168
SWIDTH 273 0
DWIDTH 10 0
BBX 11 5 3 23
BITMAP
F1E0
F1C0
F3C0
F3C0
E3C0
ENDCHAR

STARTCHAR copyright
ENCODING 169
SWIDTH 604 0
DWIDTH 23 0
BBX 23 28 1 0
BITMAP
007E00
01FF80
07FFC0
0F81E0
1E0070
3C0038
383C18
70FE1C
60FF0C
E1C38E
E1838E
C38006
C38006
C38006
C38006
C38006
E38306
E1C38E
61C78E
70FF0C
707E1C
383818
3C0038
1E00F0
0F81E0
07FFC0
01FF80
007C00
ENDCHAR

STARTCHAR ordfeminine
ENCODING 170
SWIDTH 303 0
DWIDTH 12 0
BBX 10 14 3 14
BITMAP
0F00
3F80
3FC0
71C0
01C0
03C0
3FC0
7F80
F380
E380
E780
FF80
7F80
3800
ENDCHAR

STARTCHAR guillemotleft
ENCODING 171
SWIDTH 456 0
DWIDTH 17 0
BBX 16 17 2 1
BITMAP
03CF
079E
0F3C
1E78
3E78
3CF0
79E0
FBE0
F3C0
F3C0
79E0
79E0
78E0
38E0
3CF0
1C70
1C70
ENDCHAR

STARTCHAR logicalnot
ENCODING 172
SWIDTH 479 0
DWIDTH 18 0
BBX 15 13 3 7
BITMAP
FFFE
FFFE
FFFE
FFFE
FFFE
001E
001E
001E
001E
001E
001E
001E
001E
ENDCHAR

STARTCHAR hyphen
ENCODING 173
SWIDTH 273 0
DWIDTH 10 0
BBX 10 5 1 7
BITMAP
7FC0
7F80
7F80
FF80
FF80
ENDCHAR

STARTCHAR registered
ENCODING 174
SWIDTH 604 0
DWIDTH 23 0
BBX 23 29 1 -1
BITMAP
00FC00
03FF00
07FFC0
0F83E0
1E00F0
3C0078
380038
73FC1C
73FE1C
638F0C
E3870E
E3870E
C38706
C38E06
C3FE06
C3F806
C3BC06
C39C06
E38E0E
638E0E
73871C
73879C
380038
3C0078
1E00F0
0F83E0
07FFC0
01FF00
007C00
ENDCHAR

STARTCHAR macron
ENCODING 175
SWIDTH 273 0
DWIDTH 10 0
BBX 10 4 3 23
BITMAP
FFC0
FFC0
FFC0
FF80
ENDCHAR

STARTCHAR degree
ENCODING 176
SWIDTH 328 0
DWIDTH 12 0
BBX 10 12 2 16
BITMAP
1E00
3F00
7F80
7380
E1C0
E1C0
E1C0
E1C0
7380
7F80
3F00
1E00
ENDCHAR

STARTCHAR plusminus
ENCODING 177
SWIDTH 479 0
DWIDTH 18 0
BBX 16 26 2 0
BITMAP
03C0
03C0
03C0
03C0
03C0
03C0
03C0
FFFF
FFFF
FFFF
FFFF
FFFF
03C0
03C0
03C0
03C0
03C0
03C0
03C0
0000
0000
FFFF
FFFF
FFFF
FFFF
FFFF
ENDCHAR

STARTCHAR twosuperior
ENCODING 178
SWIDTH 273 0
DWIDTH 10 0
BBX 10 14 2 14
BITMAP
0F00
1F80
3FC0
39C0
71C0
03C0
0780
0F00
1E00
3C00
7800
7F80
FF80
FF80
ENDCHAR

STARTCHAR threesuperior
ENCODING 179
SWIDTH 273 0
DWIDTH 10 0
BBX 10 15 2 13
BITMAP
0F00
1F80
3FC0
39C0
11C0
03C0
0780
0F00
0F80
0380
E380
E380
FF00
7E00
3C00
ENDCHAR

STARTCHAR acute
ENCODING 180
SWIDTH 273 0
DWIDTH 10 0
BBX 8 6 6 22
BITMAP
1F
3C
3C
78
F0
E0
ENDCHAR

STARTCHAR mu
ENCODING 181
SWIDTH 501 0
DWIDTH 19 0
BBX 20 28 -1 -8
BITMAP
07C1F0
0781F0
0781E0
0781E0
0F81E0
0F83E0
0F03E0
0F03E0
0F03C0
0F03C0
1F03C0
1F07C0
1E07C0
1F0780
1F0F80
3F0F80
3FFF80
3FFF80
3DF780
3CF700
3C0000
7C0000
7C0000
780000
780000
780000
780000
F80000
ENDCHAR

STARTCHAR paragraph
ENCODING 182
SWIDTH 456 0
DWIDTH 17 0
BBX 18 35 2 -7
BITMAP
0FFFC0
1FFFC0
3FFFC0
7FFFC0
7FFFC0
FFCF00
FFCF00
FFCF00
FFCF00
FFCF00
7FCF00
7FCF00
7FCF00
3FCF00
0FCF00
03CF00
03CF00
03CF00
03CF00
03CF00
03CF00
03CF00
03CF00
03CF00
03CF00
03CF00
03CF00
03CF00
03CF00
03CF00
03CF00
03CF00
03CF00
03CF00
03CF00
ENDCHAR

STARTCHAR periodcentered
ENCODING 183
SWIDTH 228 0
DWIDTH 9 0
BBX 5 5 3 10
BITMAP
78
F8
F8
F8
F0
ENDCHAR

STARTCHAR cedilla
ENCODING 184
SWIDTH 273 0
DWIDTH 10 0
BBX 8 7 0 -8
BITMAP
3E
3F
07
07
0E
FE
F8
ENDCHAR

STARTCHAR onesuperior
ENCODING 185
SWIDTH 273 0
DWIDTH 10 0
BBX 7 14 4 14
BITMAP
06
0E
3E
FE
FC
DC
1C
1C
1C
38
38
38
38
70
ENDCHAR

STARTCHAR ordmasculine
ENCODING 186
SWIDTH 299 0
DWIDTH 11 0
BBX 11 14 2 14
BITMAP
0F00
3FC0
3FC0
79E0
70E0
F0E0
E0E0
E0E0
E1E0
E1C0
F3C0
7F80
7F80
1E00
ENDCHAR

STARTCHAR guillemotright
ENCODING 187
SWIDTH 456 0
DWIDTH 17 0
BBX 16 17 1 1
BITMAP
1C70
0E78
0E38
0F3C
0F3C
0F3C
079E
079E
079F
079E
0F3C
1F7C
1E78
3CF0
79E0
79C0
F3C0
ENDCHAR

STARTCHAR onequarter
ENCODING 188
SWIDTH 684 0
DWIDTH 26 0
BBX 23 28 3 0
BITMAP
03000E
07000C
1F0018
7F0038
7E0070
6E0060
0E00E0
0E01C0
0E0380
1C0300
1C0700
1C0E00
1C0C00
3C1800
00380E
00701E
00603C
00E07C
01C0EC
0380DC
0301DC
070318
0E07FE
0C07FE
1807FC
380038
700030
E00070
ENDCHAR

STARTCHAR onehalf
ENCODING 189
SWIDTH 684 0
DWIDTH 26 0
BBX 23 28 3 0
BITMAP
03000E
07001C
1F0038
7F0030
7E0060
6E00E0
0E01C0
0E0180
1C0380
1C0700
1C0E00
1C0C00
1C1C00
383800
003078
0060FC
00E1FE
01C1CE
01838E
03801E
07003C
0E0078
0C00F0
1C01E0
3801C0
3003FC
7007FC
E007FC
ENDCHAR

STARTCHAR threequarters
ENCODING 190
SWIDTH 684 0
DWIDTH 26 0
BBX 24 29 2 -1
BITMAP
0F0007
1F800E
3FC00C
39C01C
11C038
03C030
078070
0F00E0
0F80C0
038180
E38380
E38700
FF0600
7E0E00
3C1C00
00180E
00381E
00703E
00E03E
00C074
01C0EC
0381DC
03039C
0703FE
0E07FE
0C07FE
1C0038
380038
700038
ENDCHAR

STARTCHAR questiondown
ENCODING 191
SWIDTH 501 0
DWIDTH 19 0
BBX 15 28 1 -8
BITMAP
007C
007C
0078
0078
0078
0000
0000
00F8
00F0
00F0
01F0
03E0
07E0
0FC0
1F80
3F00
3E00
7C00
F800
F810
F01E
F01E
F03E
F87C
7FFC
3FF8
1FF0
0FC0
ENDCHAR

STARTCHAR Agrave
ENCODING 192
SWIDTH 592 0
DWIDTH 22 0
BBX 21 36 0 0
BITMAP
000F00
000F00
000780
000780
000380
0001C0
000000
000000
000FC0
000FC0
001FC0
001FC0
003FC0
003FC0
007DC0
007BC0
007BE0
00F9E0
00F1E0
01F1E0
01E1E0
03E1E0
03C1E0
07C1E0
07C1F0
0FFFF0
0FFFF0
0FFFF0
1FFFF0
1FFFF0
3E00F0
3C00F8
7C00F8
7C00F8
F80078
F80078
ENDCHAR

STARTCHAR Aacute
ENCODING 193
SWIDTH 592 0
DWIDTH 22 0
BBX 21 36 0 0
BITMAP
0000F8
0000F0
0001E0
0001C0
000380
000700
000000
000000
000FC0
000FC0
001FC0
001FC0
003FC0
003FC0
007DC0
007BC0
007BE0
00F9E0
00F1E0
01F1E0
01E1E0
03E1E0
03C1E0
07C1E0
07C1F0
0FFFF0
0FFFF0
0FFFF0
1FFFF0
1FFFF0
3E00F0
3C00F8
7C00F8
7C00F8
F80078
F80078
ENDCHAR

STARTCHAR Acircumflex
ENCODING 194
SWIDTH 592 0
DWIDTH 22 0
BBX 21 36 0 0
BITMAP
0007C0
0007C0
000FE0
001EE0
003CE0
007870
000000
000000
000FC0
000FC0
001FC0
001FC0
003FC0
003FC0
007DC0
007BC0
007BE0
00F9E0
00F1E0
01F1E0
01E1E0
03E1E0
03C1E0
07C1E0
07C1F0
0FFFF0
0FFFF0
0FFFF0
1FFFF0
1FFFF0
3E00F0
3C00F8
7C00F8
7C00F8
F80078
F80078
ENDCHAR

STARTCHAR Atilde
ENCODING 195
SWIDTH 592 0
DWIDTH 22 0
BBX 21 35 0 0
BITMAP
000E00
001F98
001FF0
0019F0
0030E0
000000
000000
000FC0
000FC0
001FC0
001FC0
003FC0
003FC0
007DC0
007BC0
007BE0
00F9E0
00F1E0
01F1E0
01E1E0
03E1E0
03C1E0
07C1E0
07C1F0
0FFFF0
0FFFF0
0FFFF0
1FFFF0
1FFFF0
3E00F0
3C00F8
7C00F8
7C00F8
F80078
F80078
ENDCHAR

STARTCHAR Adieresis
ENCODING 196
SWIDTH 592 0
DWIDTH 22 0
BBX 21 35 0 0
BITMAP
001E78
001C78
003C78
003C70
003C70
000000
000000
000FC0
000FC0
001FC0
001FC0
003FC0
003FC0
007DC0
007BC0
007BE0
00F9E0
00F1E0
01F1E0
01E1E0
03E1E0
03C1E0
07C1E0
07C1F0
0FFFF0
0FFFF0
0FFFF0
1FFFF0
1FFFF0
3E00F0
3C00F8
7C00F8
7C00F8
F80078
F80078
ENDCHAR

STARTCHAR Aring
ENCODING 197
SWIDTH 592 0
DWIDTH 22 0
BBX 21 36 0 0
BITMAP
000780
000780
000CC0
000CC0
000CC0
000780
000300
000000
000F80
000F80
001FC0
001FC0
003FC0
003FC0
007DC0
007BC0
007BC0
00F9E0
00F1E0
01F1E0
01E1E0
03E1E0
03C1E0
07C1E0
0781E0
0FFFF0
0FFFF0
0FFFF0
1FFFF0
1FFFF0
3E00F0
3C00F0
7C00F0
7C00F8
F800F8
F80078
ENDCHAR

STARTCHAR AE
ENCODING 198
SWIDTH 820 0
DWIDTH 31 0
BBX 34 28 -1 0
BITMAP
0007FFFFC0
000FFFFFC0
000FFFFFC0
001FFFFF80
001FFFFF80
003E3C0000
003E3C0000
003C3C0000
007C7C0000
00787C0000
00F8780000
00F07FFF00
01F07FFF00
01E07FFE00
03E0FFFE00
03C0FFFE00
07FFF00000
07FFF00000
0FFFF00000
0FFFF00000
1FFFF00000
1F01E00000
3E01E00000
3E01FFFE00
3C01FFFE00
7C01FFFE00
7803FFFC00
F803FFFC00
ENDCHAR

STARTCHAR Ccedilla
ENCODING 199
SWIDTH 592 0
DWIDTH 22 0
BBX 21 36 3 -8
BITMAP
007E00
01FF80
03FFC0
07FFE0
0FFFF0
1FC1F0
1F00F8
3F00F8
3E00F8
7C0000
7C0000
7C0000
780000
F80000
F80000
F80000
F80000
F80000
F801F0
7803E0
7C03E0
7C07E0
7E0FC0
3FFF80
3FFF80
1FFF00
0FFC00
03F000
01E000
01F000
027800
003800
003800
00F800
0FF000
0FE000
ENDCHAR

STARTCHAR Egrave
ENCODING 200
SWIDTH 547 0
DWIDTH 21 0
BBX 22 36 1 0
BITMAP
003C00
003C00
001E00
000E00
000F00
000700
000000
000000
07FFFC
07FFF8
07FFF8
0FFFF8
0FFFF8
0F8000
0F0000
0F0000
0F0000
1F0000
1F0000
1FFFE0
1FFFE0
1FFFE0
1FFFE0
3FFFE0
3E0000
3E0000
3C0000
3C0000
3C0000
7C0000
7C0000
7FFFE0
7FFFC0
7FFFC0
7FFFC0
FFFFC0
ENDCHAR

STARTCHAR Eacute
ENCODING 201
SWIDTH 547 0
DWIDTH 21 0
BBX 22 36 1 0
BITMAP
0001E0
0003C0
000780
000780
000F00
001E00
000000
000000
07FFFC
07FFF8
07FFF8
0FFFF8
0FFFF8
0F8000
0F0000
0F0000
0F0000
1F0000
1F0000
1FFFE0
1FFFE0
1FFFE0
1FFFE0
3FFFE0
3E0000
3E0000
3C0000
3C0000
3C0000
7C0000
7C0000
7FFFE0
7FFFC0
7FFFC0
7FFFC0
FFFFC0
ENDCHAR

STARTCHAR Ecircumflex
ENCODING 202
SWIDTH 547 0
DWIDTH 21 0
BBX 22 36 1 0
BITMAP
000F00
001F80
003F80
007B80
00F380
01E1C0
000000
000000
07FFFC
07FFF8
07FFF8
0FFFF8
0FFFF8
0F8000
0F0000
0F0000
0F0000
1F0000
1F0000
1FFFE0
1FFFE0
1FFFE0
1FFFE0
3FFFE0
3E0000
3E0000
3C0000
3C0000
3C0000
7C0000
7C0000
7FFFE0
7FFFC0
7FFFC0
7FFFC0
FFFFC0
ENDCHAR

STARTCHAR Edieresis
ENCODING 203
SWIDTH 547 0
DWIDTH 21 0
BBX 22 35 1 0
BITMAP
0079E0
0079E0
0071E0
0071E0
00F1E0
000000
000000
07FFFC
07FFF8
07FFF8
0FFFF8
0FFFF8
0F8000
0F0000
0F0000
0F0000
1F0000
1F0000
1FFFE0
1FFFE0
1FFFE0
1FFFE0
3FFFE0
3E0000
3E0000
3C0000
3C0000
3C0000
7C0000
7C0000
7FFFE0
7FFFC0
7FFFC0
7FFFC0
FFFFC0
ENDCHAR

STARTCHAR Igrave
ENCODING 204
SWIDTH 228 0
DWIDTH 9 0
BBX 10 36 1 0
BITMAP
0F00
0F00
0780
0780
0380
01C0
0000
0000
0780
0F80
0F80
0F80
0F80
0F00
0F00
1F00
1F00
1F00
1F00
1E00
1E00
3E00
3E00
3E00
3E00
3C00
3C00
7C00
7C00
7C00
7C00
7800
7800
F800
F800
F800
ENDCHAR

STARTCHAR Iacute
ENCODING 205
SWIDTH 228 0
DWIDTH 9 0
BBX 13 36 1 0
BITMAP
00F8
00F0
01E0
01C0
0380
0700
0000
0000
0780
0F80
0F80
0F80
0F80
0F00
0F00
1F00
1F00
1F00
1F00
1E00
1E00
3E00
3E00
3E00
3E00
3C00
3C00
7C00
7C00
7C00
7C00
7800
7800
F800
F800
F800
ENDCHAR

STARTCHAR Icircumflex
ENCODING 206
SWIDTH 228 0
DWIDTH 9 0
BBX 12 36 1 0
BITMAP
07C0
07C0
0FE0
1EE0
3CE0
7870
0000
0000
0780
0F80
0F80
0F80
0F80
0F00
0F00
1F00
1F00
1F00
1F00
1E00
1E00
3E00
3E00
3E00
3E00
3C00
3C00
7C00
7C00
7C00
7C00
7800
7800
F800
F800
F800
ENDCHAR

STARTCHAR Idieresis
ENCODING 207
SWIDTH 228 0
DWIDTH 9 0
BBX 13 35 1 0
BITMAP
1E78
1C78
3C78
3C70
3C70
0000
0000
0780
0F80
0F80
0F80
0F80
0F00
0F00
1F00
1F00
1F00
1F00
1E00
1E00
3E00
3E00
3E00
3E00
3C00
3C00
7C00
7C00
7C00
7C00
7800
7800
F800
F800
F800
ENDCHAR

STARTCHAR Gbreve
ENCODING 208
SWIDTH 638 0
DWIDTH 24 0
BBX 22 35 3 0
BITMAP
00C0C0
00E180
006380
007F00
003E00
001C00
000000
003C00
01FF80
03FFC0
07FFE0
0FFFF0
1F81F8
3F00F8
3E0078
7C007C
7C0000
780000
F80000
F80000
F01FF8
F03FF0
F03FF0
F03FF0
F03EF0
F001F0
F801F0
F801E0
F801E0
7C07E0
7FFFE0
3FFFE0
1FFF80
0FFE00
03F000
ENDCHAR

STARTCHAR Ntilde
ENCODING 209
SWIDTH 592 0
DWIDTH 22 0
BBX 22 35 2 0
BITMAP
003800
007E60
007FC0
0067C0
00C380
000000
000000
0F807C
0F807C
0F8078
0FC078
1FC078
1FC078
1FE0F8
1FE0F8
1FE0F0
1EF0F0
3EF0F0
3EF0F0
3CF1F0
3CF9F0
3C79E0
3C79E0
7C7DE0
7C3DE0
783FE0
783FE0
781FC0
781FC0
F81FC0
F00FC0
F00FC0
F00FC0
F00780
F00780
ENDCHAR

STARTCHAR Ograve
ENCODING 210
SWIDTH 638 0
DWIDTH 24 0
BBX 22 35 3 0
BITMAP
003C00
001E00
000E00
000F00
000700
000000
000000
003E00
01FF80
03FFE0
07FFE0
0FFFF0
1FC1F8
1F00F8
3F00F8
3E007C
3C007C
7C007C
7C007C
78007C
78007C
F8007C
F80078
F800F8
F800F8
F800F8
7801F0
7C03F0
7C03E0
7E0FE0
3FFFC0
1FFF80
1FFF00
07FC00
01F000
ENDCHAR

STARTCHAR Oacute
ENCODING 211
SWIDTH 638 0
DWIDTH 24 0
BBX 22 35 3 0
BITMAP
0003E0
0003C0
000780
000700
000E00
000000
000000
003E00
01FF80
03FFE0
07FFE0
0FFFF0
1FC1F8
1F00F8
3F00F8
3E007C
3C007C
7C007C
7C007C
78007C
78007C
F8007C
F80078
F800F8
F800F8
F800F8
7801F0
7C03F0
7C03E0
7E0FE0
3FFFC0
1FFF80
1FFF00
07FC00
01F000
ENDCHAR

STARTCHAR Ocircumflex
ENCODING 212
SWIDTH 638 0
DWIDTH 24 0
BBX 22 35 3 0
BITMAP
000F00
001F80
003D80
007B80
00F1C0
00E1C0
000000
003E00
01FF80
03FFE0
07FFE0
0FFFF0
1FC1F8
1F00F8
3F00F8
3E007C
3C007C
7C007C
7C007C
78007C
78007C
F8007C
F80078
F800F8
F800F8
F800F8
7801F0
7C03F0
7C03E0
7E0FE0
3FFFC0
1FFF80
1FFF00
07FC00
01F000
ENDCHAR

STARTCHAR Otilde
ENCODING 213
SWIDTH 638 0
DWIDTH 24 0
BBX 22 34 3 0
BITMAP
003C60
003FE0
007FC0
006380
000000
000000
003E00
01FF80
03FFE0
07FFE0
0FFFF0
1FC1F8
1F00F8
3F00F8
3E007C
3C007C
7C007C
7C007C
78007C
78007C
F8007C
F80078
F800F8
F800F8
F800F8
7801F0
7C03F0
7C03E0
7E0FE0
3FFFC0
1FFF80
1FFF00
07FC00
01F000
ENDCHAR

STARTCHAR Odieresis
ENCODING 214
SWIDTH 638 0
DWIDTH 24 0
BBX 22 35 3 0
BITMAP
0078E0
0079E0
0079E0
0071E0
0071E0
000000
000000
003E00
01FF80
03FFE0
07FFE0
0FFFF0
1FC1F8
1F00F8
3F00F8
3E007C
3C007C
7C007C
7C007C
78007C
78007C
F8007C
F80078
F800F8
F800F8
F800F8
7801F0
7C03F0
7C03E0
7E0FE0
3FFFC0
1FFF80
1FFF00
07FC00
01F000
ENDCHAR

STARTCHAR multiply
ENCODING 215
SWIDTH 479 0
DWIDTH 18 0
BBX 15 18 3 4
BITMAP
3018
703C
F87E
FC7C
7EF8
3FF8
1FF0
0FE0
0FC0
0FE0
1FF0
3FF8
7EF8
FC7E
F87C
703C
3018
1008
ENDCHAR

STARTCHAR Oslash
ENCODING 216
SWIDTH 638 0
DWIDTH 24 0
BBX 22 31 2 -2
BITMAP
000008
003E1C
00FFDC
03FFF8
07FFF0
0FFFF8
1FC1F8
1F81FC
3F03FC
3E07BC
7C077C
7C0F3C
7C1E3C
781C3C
783C3C
F8787C
F8F07C
F8E07C
F9E078
FBC0F8
7B80F8
7F81F0
7E03F0
7F07E0
3FFFC0
3FFF80
7FFF00
77FE00
F1F000
600000
200000
ENDCHAR

STARTCHAR Ugrave
ENCODING 217
SWIDTH 592 0
DWIDTH 22 0
BBX 21 36 3 0
BITMAP
007C00
003C00
003C00
001E00
000E00
000E00
000000
000000
1E00F8
1E00F8
3E00F0
3E00F0
3E01F0
3E01F0
3C01F0
3C01F0
7C01E0
7C01E0
7C03E0
7C03E0
7803E0
7803E0
F803C0
F803C0
F807C0
F007C0
F007C0
F00780
F00F80
F80F80
FC1F00
7FFF00
7FFE00
3FFC00
1FF800
07E000
ENDCHAR

STARTCHAR Uacute
ENCODING 218
SWIDTH 592 0
DWIDTH 22 0
BBX 21 36 3 0
BITMAP
0007C0
000780
000F00
000E00
001E00
003C00
000000
000000
1E00F8
1E00F8
3E00F0
3E00F0
3E01F0
3E01F0
3C01F0
3C01F0
7C01E0
7C01E0
7C03E0
7C03E0
7803E0
7803E0
F803C0
F803C0
F807C0
F007C0
F007C0
F00780
F00F80
F80F80
FC1F00
7FFF00
7FFE00
3FFC00
1FF800
07E000
ENDCHAR

STARTCHAR Ucircumflex
ENCODING 219
SWIDTH 592 0
DWIDTH 22 0
BBX 21 36 3 0
BITMAP
001F00
003F00
007F00
007780
00F380
01E380
000000
000000
1E00F8
1E00F8
3E00F0
3E00F0
3E01F0
3E01F0
3C01F0
3C01F0
7C01E0
7C01E0
7C03E0
7C03E0
7803E0
7803E0
F803C0
F803C0
F807C0
F007C0
F007C0
F00780
F00F80
F80F80
FC1F00
7FFF00
7FFE00
3FFC00
1FF800
07E000
ENDCHAR

STARTCHAR Udieresis
ENCODING 220
SWIDTH 592 0
DWIDTH 22 0
BBX 21 35 3 0
BITMAP
00F1E0
00F1C0
00F3C0
00F3C0
00E3C0
000000
000000
1E00F8
1E00F8
3E00F0
3E00F0
3E01F0
3E01F0
3C01F0
3C01F0
7C01E0
7C01E0
7C03E0
7C03E0
7803E0
7803E0
F803C0
F803C0
F807C0
F007C0
F007C0
F00780
F00F80
F80F80
FC1F00
7FFF00
7FFE00
3FFC00
1FF800
07E000
ENDCHAR

STARTCHAR Idotaccent
ENCODING 221
SWIDTH 228 0
DWIDTH 9 0
BBX 10 35 1 0
BITMAP
07C0
07C0
0780
0780
0780
0000
0000
0780
0F80
0F80
0F80
0F80
0F00
0F00
1F00
1F00
1F00
1F00
1E00
1E00
3E00
3E00
3E00
3E00
3C00
3C00
7C00
7C00
7C00
7C00
7800
7800
F800
F800
F800
ENDCHAR

STARTCHAR Scedilla
ENCODING 222
SWIDTH 547 0
DWIDTH 21 0
BBX 19 36 2 -8
BITMAP
01FE00
07FF00
07FF80
0FFFC0
1F87E0
1F03E0
1E01E0
1E01E0
1F0000
1F8000
1FC000
0FF000
0FFC00
03FE00
01FF00
007F80
001F80
000FC0
F807C0
F807C0
F807C0
F807C0
7C0F80
7FFF80
3FFF00
3FFE00
1FFC00
05F000
03E000
03E000
00F000
007000
007000
01E000
0FC000
0F8000
ENDCHAR

STARTCHAR germandbls
ENCODING 223
SWIDTH 501 0
DWIDTH 19 0
BBX 17 28 1 0
BITMAP
00FC00
03FE00
07FF00
07FF80
0F8F80
0F8F80
0F0F80
1F1F00
1F1F00
1E3E00
1E3E00
1E7C00
3E7800
3E7800
3C7C00
3C3C00
3C3E00
3C1F00
7C0F00
7C0F80
780780
780780
784780
78CF80
FBFF80
F9FF00
F0FE00
F07C00
ENDCHAR

STARTCHAR agrave
ENCODING 224
SWIDTH 456 0
DWIDTH 17 0
BBX 15 28 2 0
BITMAP
01E0
01E0
00E0
00F0
0070
0078
0000
0000
03F0
0FF8
1FFC
1FFE
3E3E
3C1E
001E
001E
07FE
3FFE
7FFC
7C3C
F83C
F07C
F07C
F8FC
FFF8
7FF8
7F7C
1E3C
ENDCHAR

STARTCHAR aacute
ENCODING 225
SWIDTH 456 0
DWIDTH 17 0
BBX 16 28 2 0
BITMAP
001F
001E
003C
0078
0070
00E0
0000
0000
03F0
0FF8
1FFC
1FFE
3E3E
3C1E
001E
001E
07FE
3FFE
7FFC
7C3C
F83C
F07C
F07C
F8FC
FFF8
7FF8
7F7C
1E3C
ENDCHAR

STARTCHAR acircumflex
ENCODING 226
SWIDTH 456 0
DWIDTH 17 0
BBX 15 28 2 0
BITMAP
00F8
00F8
01F8
03DC
079C
0F1E
0000
0000
03F0
0FFC
1FFC
1FFE
3E3E
3C1E
001E
001E
07FE
3FFE
7FFC
7C3C
F83C
F07C
F07C
F8FC
FFF8
7FF8
7F7C
1E3C
ENDCHAR

STARTCHAR atilde
ENCODING 227
SWIDTH 456 0
DWIDTH 17 0
BBX 16 27 2 0
BITMAP
01C7
03FE
03FE
071C
0600
0000
0000
03F0
0FF8
1FFC
1FFE
3E3E
3C1E
001E
001E
07FE
3FFE
7FFC
7C3C
F83C
F07C
F07C
F8FC
FFF8
7FF8
7F7C
1E3C
ENDCHAR

STARTCHAR adieresis
ENCODING 228
SWIDTH 456 0
DWIDTH 17 0
BBX 16 28 2 0
BITMAP
03CF
038F
078F
078E
079E
0000
0000
0000
03F0
0FFC
1FFC
1FFE
3E3E
3C1E
001E
001E
07FE
3FFE
7FFC
7C3C
F83C
F07C
F07C
F8FC
FFF8
7FF8
7F7C
1E3C
ENDCHAR

STARTCHAR aring
ENCODING 229
SWIDTH 456 0
DWIDTH 17 0
BBX 15 28 1 0
BITMAP
00F0
00F0
0198
0198
0198
00F0
0060
0000
01E0
0FF8
1FFC
1FFE
3E1E
3C1E
001E
001E
07FE
3FFC
7FDC
7E3C
F83C
F03C
F07C
F8F8
FFF8
7FD8
7FB8
1E3C
ENDCHAR

STARTCHAR ae
ENCODING 230
SWIDTH 729 0
DWIDTH 28 0
BBX 26 20 1 0
BITMAP
03F07C00
0FF9FE00
1FFDFF00
1FFFFF80
3E3F8780
3C1F07C0
001E03C0
001E03C0
07FE03C0
3FFFFFC0
7FFFFFC0
7E3FFFC0
F83C0000
F07E0000
F07E0780
F0FF0F80
FFEFFF00
7FC7FE00
7F83FC00
1E01F000
ENDCHAR

STARTCHAR ccedilla
ENCODING 231
SWIDTH 456 0
DWIDTH 17 0
BBX 16 28 2 -8
BITMAP
01F0
07FC
1FFE
3FFE
3E1F
7C1F
7C0E
F800
F800
F800
F000
F000
F020
F03E
F87C
F8FC
7FF8
7FF8
3FF0
0FC0
0700
0780
0FC0
01C0
01C0
03C0
3F80
3E00
ENDCHAR

STARTCHAR egrave
ENCODING 232
SWIDTH 456 0
DWIDTH 17 0
BBX 15 28 2 0
BITMAP
03E0
01E0
00E0
00F0
0070
0070
0000
0000
03E0
0FF8
1FF8
3FFC
3E3C
7C1E
781E
F81E
F81E
FFFE
FFFE
FFFE
F000
F000
F83C
787C
7FF8
3FF0
1FE0
0780
ENDCHAR

STARTCHAR eacute
ENCODING 233
SWIDTH 456 0
DWIDTH 17 0
BBX 16 28 2 0
BITMAP
001F
003E
003C
0078
0070
00E0
0000
0000
03E0
0FF8
1FF8
3FFC
3E3C
7C1E
781E
F81E
F81E
FFFE
FFFE
FFFE
F000
F000
F83C
787C
7FF8
3FF0
1FE0
0780
ENDCHAR

STARTCHAR ecircumflex
ENCODING 234
SWIDTH 456 0
DWIDTH 17 0
BBX 15 28 2 0
BITMAP
00F8
01F8
01D8
039C
079C
0F1C
0000
0000
03E0
0FF8
1FF8
3FFC
3E3C
7C1E
781E
F81E
F81E
FFFE
FFFE
FFFE
F000
F000
F83C
787C
7FF8
3FF0
1FE0
0780
ENDCHAR

STARTCHAR edieresis
ENCODING 235
SWIDTH 456 0
DWIDTH 17 0
BBX 16 28 2 0
BITMAP
038F
038E
078E
079E
079E
0000
0000
0000
03E0
0FF8
1FFC
3FFC
3E3C
7C1E
781E
F81E
F81E
FFFE
FFFE
FFFE
F000
F000
F83C
787C
7FF8
3FF0
1FE0
0780
ENDCHAR

STARTCHAR igrave
ENCODING 236
SWIDTH 228 0
DWIDTH 9 0
BBX 9 28 1 0
BITMAP
1E00
0F00
0F00
0780
0380
0380
0000
0000
1F00
1F00
1F00
1E00
1E00
1E00
3E00
3E00
3E00
3C00
3C00
3C00
7C00
7C00
7800
7800
7800
7800
F800
F800
ENDCHAR

STARTCHAR iacute
ENCODING 237
SWIDTH 228 0
DWIDTH 9 0
BBX 12 28 1 0
BITMAP
01F0
01E0
03C0
0380
0780
0700
0000
0000
1F00
1F00
1F00
1E00
1E00
1E00
3E00
3E00
3E00
3C00
3C00
3C00
7C00
7C00
7800
7800
7800
7800
F800
F800
ENDCHAR

STARTCHAR icircumflex
ENCODING 238
SWIDTH 228 0
DWIDTH 9 0
BBX 11 28 1 0
BITMAP
0780
0FC0
1FC0
3DC0
38E0
70E0
0000
0000
1F00
1F00
1F00
1E00
1E00
1E00
3E00
3E00
3E00
3C00
3C00
3C00
7C00
7C00
7800
7800
7800
7800
F800
F800
ENDCHAR

STARTCHAR idieresis
ENCODING 239
SWIDTH 228 0
DWIDTH 9 0
BBX 12 28 1 0
BITMAP
3C70
3CF0
3CF0
38F0
38F0
0000
0000
0000
1F00
1F00
1F00
1E00
1E00
1E00
3E00
3E00
3E00
3C00
3C00
3C00
7C00
7C00
7800
7800
7800
7800
F800
F800
ENDCHAR

STARTCHAR gbreve
ENCODING 240
SWIDTH 501 0
DWIDTH 19 0
BBX 18 36 1 -8
BITMAP
018300
018300
01C600
01FE00
00FC00
007800
000000
000000
03E3C0
07F3C0
0FFBC0
1FFBC0
1F1FC0
3E0F80
3C0F80
7C0F80
7C0F80
780F80
780F80
780F00
780F00
781F00
7C1F00
7E3F00
3FFF00
3FFE00
1FDE00
0F1E00
003E00
E03E00
F83C00
F87C00
FFFC00
7FF800
3FF000
0FC000
ENDCHAR

STARTCHAR ntilde
ENCODING 241
SWIDTH 501 0
DWIDTH 19 0
BBX 17 27 1 0
BITMAP
00E180
01FF00
01FF00
038E00
000000
000000
000000
1F1E00
1E7F00
1EFF80
1FFF80
1F8F80
1F0780
3E0780
3E0780
3E0F80
3C0F80
3C0F00
3C0F00
7C0F00
7C0F00
781F00
781F00
781E00
781E00
F81E00
F83E00
ENDCHAR

STARTCHAR ograve
ENCODING 242
SWIDTH 501 0
DWIDTH 19 0
BBX 16 28 2 0
BITMAP
01E0
00F0
00F0
0070
0078
0038
0000
0000
03F0
0FF8
1FFC
3FFE
7E3F
7C1F
780F
F80F
F80F
F00F
F00F
F01F
F01F
F01E
F83E
7C7C
7FFC
3FF8
1FF0
0FC0
ENDCHAR

STARTCHAR oacute
ENCODING 243
SWIDTH 501 0
DWIDTH 19 0
BBX 16 28 2 0
BITMAP
001F
001E
003C
0038
0078
0070
0000
0000
03F0
0FF8
1FFC
3FFE
7E3F
7C1F
780F
F80F
F80F
F00F
F00F
F01F
F01F
F01E
F83E
7C7C
7FFC
3FF8
1FF0
0FC0
ENDCHAR

STARTCHAR ocircumflex
ENCODING 244
SWIDTH 501 0
DWIDTH 19 0
BBX 16 28 2 0
BITMAP
0078
00F8
01FC
03DC
039C
070E
0000
0000
03F0
0FF8
1FFC
3FFE
7E3F
7C1F
780F
F80F
F80F
F00F
F00F
F01F
F01F
F01E
F83E
7C7C
7FFC
3FF8
1FF0
0FC0
ENDCHAR

STARTCHAR otilde
ENCODING 245
SWIDTH 501 0
DWIDTH 19 0
BBX 16 27 2 0
BITMAP
01E3
01FF
03FE
031C
0300
0000
0000
03F0
0FF8
1FFC
3FFE
7E3F
7C1F
780F
F80F
F80F
F00F
F00F
F01F
F01F
F01E
F83E
7C7C
7FFC
3FF8
1FF0
0FC0
ENDCHAR

STARTCHAR odieresis
ENCODING 246
SWIDTH 501 0
DWIDTH 19 0
BBX 16 28 2 0
BITMAP
03CF
03CF
03CF
038F
038E
0000
0000
0000
07F0
0FFC
1FFC
3FFE
7E3F
7C1F
780F
F80F
F80F
F00F
F00F
F01F
F01F
F01E
F83E
7C7C
7FFC
3FF8
1FF0
0FC0
ENDCHAR

STARTCHAR divide
ENCODING 247
SWIDTH 479 0
DWIDTH 18 0
BBX 16 20 2 4
BITMAP
03C0
03C0
03C0
03C0
03C0
0000
0000
0000
FFFF
FFFF
FFFF
FFFF
FFFF
0000
0000
03C0
03C0
03C0
03C0
03C0
ENDCHAR

STARTCHAR oslash
ENCODING 248
SWIDTH 501 0
DWIDTH 19 0
BBX 17 23 2 -1
BITMAP
000080
000180
01F380
0FFF00
1FFE00
3FFF00
3E1F00
7C3F80
783F80
F87780
F8E780
F1C780
F1C780
F38F80
F70F80
F61F00
FE1F00
7C3E00
3FFE00
7FFC00
7FF000
E7C000
400000
ENDCHAR

STARTCHAR ugrave
ENCODING 249
SWIDTH 501 0
DWIDTH 19 0
BBX 17 28 2 0
BITMAP
01F000
00F000
007000
007800
003800
003C00
000000
000000
3E0F80
3C0F80
3C0F00
3C0F00
7C0F00
7C0F00
781F00
781F00
781E00
781E00
F81E00
F83E00
F03E00
F03E00
F07C00
F8FC00
FFFC00
FFBC00
7F7C00
1C0000
ENDCHAR

STARTCHAR uacute
ENCODING 250
SWIDTH 501 0
DWIDTH 19 0
BBX 17 28 2 0
BITMAP
001F00
003C00
003800
007800
00F000
00E000
000000
000000
3E0F80
3C0F80
3C0F00
3C0F00
7C0F00
7C0F00
781F00
781F00
781E00
781E00
F81E00
F83E00
F03E00
F03E00
F07C00
F8FC00
FFFC00
FFBC00
7F7C00
1C0000
ENDCHAR

STARTCHAR ucircumflex
ENCODING 251
SWIDTH 501 0
DWIDTH 19 0
BBX 17 28 2 0
BITMAP
007C00
00FC00
01EC00
01CE00
03CE00
078E00
000000
000000
3E0F80
3C0F80
3C0F00
3C0F00
7C0F00
7C0F00
781F00
781F00
781E00
781E00
F81E00
F83E00
F03E00
F03E00
F07C00
F8FC00
FFFC00
FFBC00
7F7C00
1C0000
ENDCHAR

STARTCHAR udieresis
ENCODING 252
SWIDTH 501 0
DWIDTH 19 0
BBX 17 28 2 0
BITMAP
01C780
03C780
03C700
03CF00
03CF00
000000
000000
000000
3E0F80
3C0F80
3C0F00
3C0F00
7C0F00
7C0F00
781F00
781F00
781E00
781E00
F81E00
F83E00
F03E00
F03E00
F07C00
F8FC00
FFFC00
FFBC00
7F7C00
1C0000
ENDCHAR

STARTCHAR dotlessi
ENCODING 253
SWIDTH 228 0
DWIDTH 9 0
BBX 8 20 1 0
BITMAP
1F
1F
1F
1E
1E
1E
3E
3E
3E
3C
3C
3C
7C
7C
78
78
78
78
F8
F8
ENDCHAR

STARTCHAR scedilla
ENCODING 254
SWIDTH 456 0
DWIDTH 17 0
BBX 16 28 1 -8
BITMAP
01F0
0FFC
1FFE
1FFF
3E1F
3C0C
3E00
3F80
3FF0
1FF8
0FFC
01FE
007E
101E
F01E
F83E
FFFC
7FFC
3FF8
0BE0
0780
07C0
01E0
00E0
00E0
03C0
1F80
1F00
ENDCHAR

STARTCHAR ydieresis
ENCODING 255
SWIDTH 456 0
DWIDTH 17 0
BBX 19 36 0 -8
BITMAP
00F3C0
00F3C0
00E3C0
00E3C0
01E3C0
000000
000000
000000
1E01E0
1E03E0
1E03C0
1E07C0
1F0780
1F0F80
0F0F80
0F1F00
0F1F00
0F1E00
0F3E00
0F3C00
0F7C00
077800
07B800
07F000
07F000
07F000
07E000
03E000
07C000
07C000
0F8000
1F8000
7F0000
FF0000
FE0000
FC0000
ENDCHAR
ENDFONT
